<svg width="400" height="313" viewBox="0 0 400 313" fill="none" xmlns="http://www.w3.org/2000/svg">
<path d="M147.662 0.000460073L147.263 5.84532C147.138 7.81858 146.163 9.10495 144.138 10.5287C142.213 11.9025 139.338 13.0265 136.713 13.2638H109C90.2 13.2638 75 28.7252 75 47.6086V83.1273C74.6663 84.2734 74.6663 85.4907 75 86.6367V106.931C75 120.395 79.75 132.659 87.5 142.45V172.111L26.175 207.218C10.1625 216.373 0 233.32 0 251.729V313H365.625C384.125 313 400 299.374 400 281.777C399.938 280.141 399.26 278.588 398.101 277.43C396.942 276.273 395.388 275.595 393.75 275.533H375V94.4423C374.938 92.8059 374.26 91.2533 373.101 90.0953C371.942 88.9374 370.388 88.2597 368.75 88.1978H187.5V35.1196C186.263 25.6279 183.375 17.0979 177.737 10.5287C172.1 3.97197 163.613 -0.049496 153.513 0.000460073H147.662ZM155.862 13.2638C161.162 13.8008 165.462 15.3619 168.362 18.734C171.625 22.5306 173.9 28.4754 175 35.9064V74.5349C172.534 73.2695 169.905 72.3492 167.188 71.7998C159.75 70.4385 152.15 70.7132 144.925 71.0255C137.687 71.3252 130.875 71.3627 125.388 69.8515C119.913 68.3528 115.75 66.0049 112.112 59.7104C111.433 58.5017 110.381 57.5447 109.112 56.9821C107.844 56.4195 106.428 56.2813 105.075 56.5882C103.94 56.8656 102.902 57.4489 102.076 58.2747C101.249 59.1005 100.665 60.1371 100.388 61.2715C100.613 60.4223 99.7375 62.3831 98.05 64.3938C96.35 66.392 94.2625 68.8274 91.8 71.0255C90.375 72.2868 88.9625 73.1236 87.5 74.1477V47.6086C87.5 35.3444 97 25.7528 108.987 25.7528H137.1C142.29 25.397 147.288 23.6449 151.562 20.6823C153.825 19.0837 154.337 15.824 155.862 13.2638ZM108.6 71.4126C112.925 75.534 116.75 80.5296 121.875 81.9533C129.8 84.1389 137.875 83.8267 145.312 83.5145C152.75 83.2022 159.687 82.9525 164.85 83.9016C169.612 84.7759 172.475 86.6492 175 90.5333V106.931C175 131.66 155.563 151.43 131.25 151.43C106.937 151.43 87.5 131.647 87.5 106.931V88.9722C88.5875 88.3477 89.925 87.7233 91.0125 87.0239C93.9625 85.1505 97.1375 82.94 100 80.3922C102.779 77.9713 105.389 75.3633 107.812 72.5866C108.138 72.1994 108.287 71.7748 108.6 71.4126ZM187.5 100.687H362.5V275.146L339.062 275.533H262.5V250.555C262.5 232.883 253.25 216.398 237.888 207.618L175 172.124V142.063C182.55 132.359 187.5 120.207 187.5 106.944V100.687ZM162.5 154.152V179.13C157.525 188.36 152.737 197.926 141.8 207.231L141.412 207.63L131.638 216.597L122.263 207.63L121.487 206.843C112.525 197.177 103.988 185.7 100 174.834V154.539C108.888 160.534 119.775 163.906 131.25 163.906C142.913 163.906 153.525 160.297 162.5 154.152ZM82.8125 188.897L75.3875 216.997L75 217.372V217.771C73.825 227.488 84.375 235.681 93.3625 231.434V231.035L116.8 219.72L125 227.525V300.511H62.5V263.044H50V300.511H12.5V251.729C12.5563 244.822 14.4262 238.05 17.9227 232.091C21.4192 226.132 26.4199 221.194 32.425 217.771L82.8125 188.897ZM95.7 190.058C99.6375 196.977 103.462 203.621 108.6 209.579L87.8875 220.107H87.5V219.732C87.475 219.582 87.45 219.72 87.5 219.332L95.7 190.058ZM181.638 190.058L231.638 218.558C237.254 221.796 241.911 226.463 245.137 232.083C248.362 237.703 250.04 244.077 250 250.555V300.511H212.888V263.044H200.388V300.511H137.888V227.912L146.875 219.72L171.487 231.434C180.587 235.556 191.487 227.675 190.237 217.771L189.85 216.985V216.61C189.85 216.61 186.375 206.456 183.2 195.916C182.575 193.83 182.175 192.119 181.638 190.058ZM169.525 192.019C170.25 194.504 170.7 196.84 171.487 199.425C174.525 209.504 177 218.258 177.35 219.332C177.3 219.632 177.25 220.169 176.95 220.119H176.562L155.463 209.966C161.3 203.596 166.45 197.739 169.537 192.006L169.525 192.019ZM156.25 250.555C154.592 250.555 153.003 251.213 151.831 252.384C150.658 253.555 150 255.143 150 256.799C150 258.456 150.658 260.044 151.831 261.215C153.003 262.386 154.592 263.044 156.25 263.044C157.908 263.044 159.497 262.386 160.669 261.215C161.842 260.044 162.5 258.456 162.5 256.799C162.5 255.143 161.842 253.555 160.669 252.384C159.497 251.213 157.908 250.555 156.25 250.555ZM156.25 275.533C154.592 275.533 153.003 276.191 151.831 277.362C150.658 278.533 150 280.121 150 281.777C150 283.434 150.658 285.022 151.831 286.193C153.003 287.364 154.592 288.022 156.25 288.022C157.908 288.022 159.497 287.364 160.669 286.193C161.842 285.022 162.5 283.434 162.5 281.777C162.5 280.121 161.842 278.533 160.669 277.362C159.497 276.191 157.908 275.533 156.25 275.533ZM262.5 288.022H384.375C381.238 294.791 375.088 300.511 365.625 300.511H262.5V288.022Z" fill="black"/>
</svg>
