<svg width="300" height="429" viewBox="0 0 300 429" fill="none" xmlns="http://www.w3.org/2000/svg">
<path d="M31.6412 0C13.9235 0 0 12.0413 0 26.0849V402.016C0 416.074 13.9235 428.074 31.6412 428.074H268.394C286.129 428.074 300 416.06 300 402.016V26.0987C300 12.0413 286.112 0 268.394 0H31.6412ZM31.6412 14.4855H268.394C275.365 14.4855 281.488 19.2909 281.488 26.0849V402.016C281.488 408.783 275.347 413.616 268.394 413.616H31.6412C24.6706 413.616 18.5118 408.796 18.5118 402.016V26.0987C18.5118 19.3324 24.6882 14.4855 31.6412 14.4855ZM79.4118 27.6176C77.0716 27.6176 74.8273 28.3451 73.1726 29.6399C71.5178 30.9347 70.5882 32.6909 70.5882 34.5221C70.5882 36.3532 71.5178 38.1094 73.1726 39.4042C74.8273 40.699 77.0716 41.4265 79.4118 41.4265C81.7519 41.4265 83.9962 40.699 85.6509 39.4042C87.3057 38.1094 88.2353 36.3532 88.2353 34.5221C88.2353 32.6909 87.3057 30.9347 85.6509 29.6399C83.9962 28.3451 81.7519 27.6176 79.4118 27.6176ZM187.059 27.6038L186.918 27.6315H130.588C119.682 27.3 119.753 41.7579 130.659 41.4265H186.988C197.506 41.4955 197.576 27.6729 187.059 27.6038ZM43.9059 55.2353C41.6187 55.2426 39.4283 55.9587 37.8143 57.2268C36.2003 58.495 35.2941 60.2118 35.2941 62.0016V352.291C35.2941 356.019 39.1588 359.016 43.9059 359.029H256.094C258.375 359.022 260.56 358.31 262.173 357.048C263.786 355.785 264.697 354.076 264.706 352.291V62.0016C264.706 60.2118 263.8 58.495 262.186 57.2268C260.572 55.9587 258.381 55.2426 256.094 55.2353H43.9059ZM52.9412 69.0441H247.429V345.221H229.412V207.132H211.765V345.221H194.118V193.324H176.471V345.221H158.788V220.941H141.212V345.221H123.529V165.706H105.882V345.221H52.9412V69.0441ZM123.529 96.6618V110.471H194.118V96.6618H123.529ZM150.212 365.934C135.671 365.934 123.741 375.269 123.741 386.647C123.741 398.026 135.671 407.36 150.212 407.36C164.753 407.36 176.682 398.026 176.682 386.647C176.682 375.269 164.753 365.934 150.212 365.934ZM150.212 376.29C157.588 376.29 163.447 380.861 163.447 386.647C163.447 392.433 157.588 397.004 150.212 397.004C148.47 397.015 146.742 396.754 145.13 396.238C143.518 395.721 142.053 394.959 140.822 393.995C139.59 393.031 138.615 391.885 137.955 390.623C137.295 389.362 136.962 388.01 136.976 386.647C136.976 380.861 142.818 376.29 150.212 376.29Z" fill="black"/>
<path d="M97.0579 96.6626C94.7178 96.6626 92.4735 97.3889 90.8187 98.6837C89.164 99.9785 88.2344 101.736 88.2344 103.567C88.2344 105.398 89.164 107.154 90.8187 108.449C92.4735 109.743 94.7178 110.471 97.0579 110.471C99.398 110.471 101.642 109.743 103.297 108.449C104.952 107.154 105.881 105.398 105.881 103.567C105.881 101.736 104.952 99.9785 103.297 98.6837C101.642 97.3889 99.398 96.6626 97.0579 96.6626Z" fill="black"/>
</svg>
